<svg width="141" height="40" viewBox="0 0 141 40" fill="none" xmlns="http://www.w3.org/2000/svg">
    <path d="M53.1932 5.80425V12.3733C53.1932 13.2103 53.3527 13.8381 53.6716 14.2567C54.0009 14.6752 54.5513 14.8845 55.323 14.8845C56.0946 14.8845 56.6399 14.6752 56.9589 14.2567C57.2881 13.8381 57.4528 13.2103 57.4528 12.3733V5.80425H59.4591V12.1129C59.4591 12.899 59.3819 13.5778 59.2276 14.1495C59.0835 14.7212 58.8469 15.1958 58.5177 15.5735C58.1884 15.9513 57.7563 16.232 57.2213 16.4157C56.6965 16.5893 56.0586 16.676 55.3076 16.676C54.5462 16.676 53.9031 16.5893 53.3784 16.4157C52.864 16.232 52.4421 15.9513 52.1129 15.5735C51.7836 15.1958 51.547 14.7212 51.403 14.1495C51.2589 13.5778 51.1869 12.899 51.1869 12.1129V5.80425H53.1932Z" fill="#0F1014"/>
    <path d="M61.7961 16.4923V8.49923H63.7716V9.83141H63.8487C64.0134 9.40266 64.2706 9.04537 64.6204 8.75954C64.9805 8.4635 65.4744 8.31548 66.102 8.31548C66.9354 8.31548 67.5733 8.586 68.0157 9.12704C68.4581 9.66807 68.6793 10.4388 68.6793 11.4392V16.4923H66.7039V11.6383C66.7039 11.0666 66.601 10.6379 66.3952 10.352C66.1894 10.0662 65.8499 9.92328 65.3766 9.92328C65.1708 9.92328 64.9702 9.95391 64.7747 10.0152C64.5895 10.0662 64.4198 10.1479 64.2654 10.2602C64.1214 10.3622 64.0031 10.4949 63.9105 10.6583C63.8179 10.8114 63.7716 10.9951 63.7716 11.2095V16.4923H61.7961Z" fill="#0F1014"/>
    <path d="M73.5082 16.676C72.7366 16.676 72.0884 16.5484 71.5636 16.2932C71.0389 16.0278 70.5759 15.6654 70.1746 15.206L71.3784 14.0423C71.6768 14.3792 72.0009 14.6446 72.3507 14.8386C72.7108 15.0325 73.1224 15.1295 73.5854 15.1295C74.0587 15.1295 74.3982 15.0478 74.604 14.8845C74.82 14.7212 74.9281 14.4966 74.9281 14.2107C74.9281 13.976 74.8509 13.7922 74.6966 13.6595C74.5525 13.5166 74.3005 13.4196 73.9403 13.3686L73.1378 13.2614C72.2633 13.1491 71.5945 12.9041 71.1315 12.5264C70.6788 12.1385 70.4524 11.577 70.4524 10.842C70.4524 10.4541 70.5245 10.107 70.6685 9.80078C70.8126 9.48433 71.0183 9.21891 71.2858 9.00454C71.5533 8.77996 71.8723 8.61152 72.2427 8.49923C72.6234 8.37673 73.0452 8.31548 73.5082 8.31548C73.8992 8.31548 74.2439 8.34611 74.5422 8.40736C74.8509 8.4584 75.1287 8.54006 75.3756 8.65235C75.6226 8.75444 75.8489 8.88714 76.0547 9.05048C76.2605 9.2036 76.4611 9.37714 76.6566 9.5711L75.4991 10.7195C75.2625 10.4745 74.9795 10.2704 74.6503 10.107C74.321 9.9437 73.9609 9.86203 73.57 9.86203C73.1378 9.86203 72.824 9.93859 72.6285 10.0917C72.4433 10.2448 72.3507 10.4439 72.3507 10.6889C72.3507 10.9543 72.4279 11.1585 72.5822 11.3014C72.7468 11.4341 73.0195 11.5311 73.4002 11.5923L74.2181 11.6995C75.9569 11.9445 76.8264 12.7305 76.8264 14.0576C76.8264 14.4455 76.744 14.8028 76.5794 15.1295C76.4251 15.4459 76.2039 15.7216 75.9158 15.9564C75.6277 16.1809 75.2779 16.3596 74.8663 16.4923C74.4651 16.6148 74.0124 16.676 73.5082 16.676Z" fill="#0F1014"/>
    <path d="M80.9657 16.4923C80.2866 16.4923 79.7671 16.3187 79.4069 15.9717C79.0571 15.6144 78.8822 15.1091 78.8822 14.4557V10.0611H77.6939V8.49923H78.3112C78.6096 8.49923 78.8102 8.43288 78.9131 8.30017C79.0263 8.15725 79.0829 7.94798 79.0829 7.67236V6.30956H80.8577V8.49923H82.509V10.0611H80.8577V14.9304H82.3856V16.4923H80.9657Z" fill="#0F1014"/>
    <path d="M87.3568 16.676C86.7807 16.676 86.2611 16.5791 85.7981 16.3851C85.3454 16.1911 84.9544 15.9104 84.6252 15.5429C84.3062 15.1754 84.0593 14.7365 83.8844 14.2261C83.7095 13.7054 83.622 13.1236 83.622 12.4804C83.622 11.8373 83.7095 11.2606 83.8844 10.7501C84.0593 10.2397 84.3062 9.80589 84.6252 9.4486C84.9544 9.0811 85.3454 8.80037 85.7981 8.60642C86.2611 8.41246 86.7807 8.31548 87.3568 8.31548C87.933 8.31548 88.4526 8.41246 88.9156 8.60642C89.3786 8.80037 89.7696 9.0811 90.0885 9.4486C90.4178 9.80589 90.6698 10.2397 90.8447 10.7501C91.0197 11.2606 91.1071 11.8373 91.1071 12.4804C91.1071 13.1236 91.0197 13.7054 90.8447 14.2261C90.6698 14.7365 90.4178 15.1754 90.0885 15.5429C89.7696 15.9104 89.3786 16.1911 88.9156 16.3851C88.4526 16.5791 87.933 16.676 87.3568 16.676ZM87.3568 15.0989C87.8816 15.0989 88.2931 14.9406 88.5915 14.6242C88.8899 14.3077 89.0391 13.8432 89.0391 13.2308V11.7455C89.0391 11.1432 88.8899 10.6838 88.5915 10.3673C88.2931 10.0509 87.8816 9.89266 87.3568 9.89266C86.8424 9.89266 86.436 10.0509 86.1376 10.3673C85.8393 10.6838 85.6901 11.1432 85.6901 11.7455V13.2308C85.6901 13.8432 85.8393 14.3077 86.1376 14.6242C86.436 14.9406 86.8424 15.0989 87.3568 15.0989Z" fill="#0F1014"/>
    <path d="M92.8584 8.49923H94.8339V9.81609H94.8956C95.0396 9.35672 95.3123 8.99433 95.7136 8.72892C96.1148 8.45329 96.583 8.31548 97.118 8.31548C98.1469 8.31548 98.9288 8.67787 99.4638 9.40266C100.009 10.1172 100.282 11.1432 100.282 12.4804C100.282 13.8279 100.009 14.8641 99.4638 15.5889C98.9288 16.3136 98.1469 16.676 97.118 16.676C96.583 16.676 96.1148 16.5382 95.7136 16.2626C95.3226 15.987 95.0499 15.6195 94.8956 15.1601H94.8339V19.5548H92.8584V8.49923ZM96.4852 15.0529C96.9997 15.0529 97.4163 14.8845 97.7353 14.5476C98.0543 14.2107 98.2137 13.7565 98.2137 13.1848V11.8067C98.2137 11.235 98.0543 10.7808 97.7353 10.4439C97.4163 10.0968 96.9997 9.92328 96.4852 9.92328C96.0119 9.92328 95.6158 10.0407 95.2969 10.2755C94.9882 10.5103 94.8339 10.8216 94.8339 11.2095V13.7514C94.8339 14.1699 94.9882 14.4915 95.2969 14.7161C95.6158 14.9406 96.0119 15.0529 96.4852 15.0529Z" fill="#0F1014"/>
    <path d="M102.112 8.49923H104.088V9.81609H104.149C104.294 9.35672 104.566 8.99433 104.967 8.72892C105.369 8.45329 105.837 8.31548 106.372 8.31548C107.401 8.31548 108.183 8.67787 108.718 9.40266C109.263 10.1172 109.536 11.1432 109.536 12.4804C109.536 13.8279 109.263 14.8641 108.718 15.5889C108.183 16.3136 107.401 16.676 106.372 16.676C105.837 16.676 105.369 16.5382 104.967 16.2626C104.576 15.987 104.304 15.6195 104.149 15.1601H104.088V19.5548H102.112V8.49923ZM105.739 15.0529C106.254 15.0529 106.67 14.8845 106.989 14.5476C107.308 14.2107 107.468 13.7565 107.468 13.1848V11.8067C107.468 11.235 107.308 10.7808 106.989 10.4439C106.67 10.0968 106.254 9.92328 105.739 9.92328C105.266 9.92328 104.87 10.0407 104.551 10.2755C104.242 10.5103 104.088 10.8216 104.088 11.2095V13.7514C104.088 14.1699 104.242 14.4915 104.551 14.7161C104.87 14.9406 105.266 15.0529 105.739 15.0529Z" fill="#0F1014"/>
    <path d="M117.293 16.4923C116.86 16.4923 116.516 16.3698 116.258 16.1248C116.012 15.8696 115.857 15.5327 115.796 15.1142H115.703C115.569 15.6348 115.296 16.0278 114.885 16.2932C114.473 16.5484 113.964 16.676 113.357 16.676C112.534 16.676 111.901 16.4617 111.459 16.0329C111.016 15.6042 110.795 15.0325 110.795 14.3179C110.795 13.4911 111.094 12.8786 111.69 12.4804C112.287 12.0721 113.136 11.868 114.237 11.868H115.61V11.2861C115.61 10.8369 115.492 10.4898 115.255 10.2448C115.019 9.99984 114.638 9.87734 114.113 9.87734C113.65 9.87734 113.275 9.97943 112.987 10.1836C112.709 10.3775 112.472 10.6123 112.277 10.888L111.104 9.84672C111.402 9.38735 111.798 9.01985 112.292 8.74423C112.786 8.4584 113.439 8.31548 114.252 8.31548C115.343 8.31548 116.171 8.56048 116.737 9.05048C117.303 9.54047 117.586 10.2448 117.586 11.1636V14.9304H118.388V16.4923H117.293ZM114.021 15.252C114.463 15.252 114.839 15.155 115.147 14.9611C115.456 14.7671 115.61 14.4813 115.61 14.1036V13.047H114.345C113.316 13.047 112.801 13.3737 112.801 14.027V14.2873C112.801 14.614 112.904 14.859 113.11 15.0223C113.326 15.1754 113.63 15.252 114.021 15.252Z" fill="#0F1014"/>
    <path d="M119.987 5.16113H121.963V9.81609H122.024C122.168 9.35672 122.441 8.99433 122.842 8.72892C123.243 8.45329 123.712 8.31548 124.247 8.31548C125.275 8.31548 126.057 8.67787 126.592 9.40266C127.138 10.1172 127.41 11.1432 127.41 12.4804C127.41 13.8279 127.138 14.8641 126.592 15.5889C126.057 16.3136 125.275 16.676 124.247 16.676C123.712 16.676 123.243 16.5382 122.842 16.2626C122.451 15.987 122.179 15.6195 122.024 15.1601H121.963V16.4923H119.987V5.16113ZM123.614 15.0529C124.128 15.0529 124.545 14.8845 124.864 14.5476C125.183 14.2107 125.342 13.7565 125.342 13.1848V11.8067C125.342 11.235 125.183 10.7808 124.864 10.4439C124.545 10.0968 124.128 9.92328 123.614 9.92328C123.141 9.92328 122.744 10.0407 122.425 10.2755C122.117 10.5103 121.963 10.8216 121.963 11.2095V13.7514C121.963 14.1699 122.117 14.4915 122.425 14.7161C122.744 14.9406 123.141 15.0529 123.614 15.0529Z" fill="#0F1014"/>
    <path d="M131.216 16.4923C130.537 16.4923 130.038 16.3239 129.719 15.987C129.4 15.6501 129.241 15.1754 129.241 14.5629V5.16113H131.216V14.9304H132.281V16.4923H131.216Z" fill="#0F1014"/>
    <path d="M137.034 16.676C136.437 16.676 135.902 16.5791 135.429 16.3851C134.966 16.1809 134.57 15.9002 134.24 15.5429C133.921 15.1754 133.675 14.7365 133.5 14.2261C133.325 13.7054 133.237 13.1236 133.237 12.4804C133.237 11.8475 133.32 11.2759 133.484 10.7655C133.659 10.255 133.906 9.8212 134.225 9.46391C134.544 9.09641 134.935 8.81569 135.398 8.62173C135.861 8.41756 136.386 8.31548 136.972 8.31548C137.6 8.31548 138.145 8.42267 138.608 8.63704C139.071 8.85141 139.452 9.14235 139.75 9.50985C140.048 9.87734 140.27 10.3061 140.414 10.7961C140.568 11.2759 140.645 11.7914 140.645 12.3426V12.9858H135.29V13.1848C135.29 13.7667 135.455 14.2363 135.784 14.5936C136.113 14.9406 136.602 15.1142 137.25 15.1142C137.744 15.1142 138.145 15.0121 138.454 14.8079C138.773 14.6038 139.056 14.3435 139.303 14.027L140.367 15.206C140.038 15.6654 139.585 16.0278 139.009 16.2932C138.443 16.5484 137.785 16.676 137.034 16.676ZM137.003 9.78547C136.478 9.78547 136.062 9.95901 135.753 10.3061C135.444 10.6532 135.29 11.1023 135.29 11.6536V11.7761H138.593V11.6383C138.593 11.087 138.454 10.643 138.176 10.3061C137.908 9.95901 137.517 9.78547 137.003 9.78547Z" fill="#0F1014"/>
    <path d="M57.9312 34.3567L57.0669 31.6311H53.2395L52.3907 34.3567H50.3226L53.934 23.6687H56.465L60.0455 34.3567H57.9312ZM55.1841 25.5062H55.1069L53.7334 29.9008H56.5731L55.1841 25.5062Z" fill="#0F1014"/>
    <path d="M64.689 34.5405C64.0922 34.5405 63.5624 34.4435 63.0994 34.2495C62.6364 34.0556 62.2454 33.7749 61.9265 33.4074C61.6178 33.0399 61.3812 32.6009 61.2165 32.0905C61.0519 31.5699 60.9696 30.988 60.9696 30.3449C60.9696 29.7018 61.0519 29.125 61.2165 28.6146C61.3812 28.1042 61.6178 27.6703 61.9265 27.313C62.2454 26.9455 62.6364 26.6648 63.0994 26.4708C63.5624 26.2769 64.0922 26.1799 64.689 26.1799C65.5018 26.1799 66.1706 26.3586 66.6953 26.7158C67.2303 27.0731 67.6162 27.5682 67.8528 28.2011L66.2323 28.9208C66.1397 28.584 65.9648 28.3083 65.7076 28.094C65.4607 27.8694 65.1211 27.7571 64.689 27.7571C64.1334 27.7571 63.7167 27.9306 63.4389 28.2777C63.1714 28.6248 63.0376 29.0791 63.0376 29.6405V31.0952C63.0376 31.6566 63.1714 32.1109 63.4389 32.458C63.7167 32.7949 64.1334 32.9633 64.689 32.9633C65.1623 32.9633 65.5275 32.8459 65.7848 32.6111C66.042 32.3661 66.2426 32.065 66.3866 31.7077L67.8991 32.4274C67.6316 33.1317 67.2252 33.6626 66.6799 34.0198C66.1346 34.3669 65.4709 34.5405 64.689 34.5405Z" fill="#0F1014"/>
    <path d="M75.3486 34.3567C74.9165 34.3567 74.5718 34.2342 74.3146 33.9892C74.0677 33.734 73.9133 33.3971 73.8516 32.9786H73.759C73.6252 33.4992 73.3526 33.8922 72.941 34.1577C72.5295 34.4129 72.0202 34.5405 71.4132 34.5405C70.5901 34.5405 69.9573 34.3261 69.5149 33.8974C69.0725 33.4686 68.8513 32.8969 68.8513 32.1824C68.8513 31.3555 69.1496 30.743 69.7464 30.3449C70.3431 29.9366 71.192 29.7324 72.2929 29.7324H73.6664V29.1505C73.6664 28.7014 73.5481 28.3543 73.3114 28.1093C73.0748 27.8643 72.6941 27.7418 72.1694 27.7418C71.7064 27.7418 71.3309 27.8439 71.0428 28.048C70.765 28.242 70.5283 28.4768 70.3328 28.7524L69.1599 27.7112C69.4583 27.2518 69.8544 26.8843 70.3483 26.6087C70.8421 26.3228 71.4955 26.1799 72.3083 26.1799C73.3989 26.1799 74.2271 26.4249 74.793 26.9149C75.3589 27.4049 75.6419 28.1093 75.6419 29.028V32.7949H76.4444V34.3567H75.3486ZM72.0768 33.1164C72.5192 33.1164 72.8947 33.0194 73.2034 32.8255C73.5121 32.6315 73.6664 32.3457 73.6664 31.968V30.9114H72.4009C71.372 30.9114 70.8576 31.2381 70.8576 31.8914V32.1517C70.8576 32.4784 70.9605 32.7234 71.1662 32.8867C71.3823 33.0399 71.6858 33.1164 72.0768 33.1164Z" fill="#0F1014"/>
    <path d="M83.0435 33.0245H82.9663C82.8223 33.4839 82.5496 33.8514 82.1484 34.127C81.7471 34.4027 81.279 34.5405 80.744 34.5405C79.7254 34.5405 78.9434 34.1781 78.3981 33.4533C77.8631 32.7285 77.5956 31.6924 77.5956 30.3449C77.5956 29.0076 77.8631 27.9817 78.3981 27.2671C78.9434 26.5423 79.7254 26.1799 80.744 26.1799C81.279 26.1799 81.7471 26.3177 82.1484 26.5933C82.5496 26.8588 82.8223 27.2212 82.9663 27.6805H83.0435V23.0256H85.019V34.3567H83.0435V33.0245ZM81.3767 32.9174C81.85 32.9174 82.2461 32.8051 82.5651 32.5805C82.884 32.3559 83.0435 32.0343 83.0435 31.6158V29.074C83.0435 28.686 82.884 28.3747 82.5651 28.1399C82.2461 27.9051 81.85 27.7877 81.3767 27.7877C80.8623 27.7877 80.4456 27.9613 80.1266 28.3083C79.818 28.6452 79.6636 29.0995 79.6636 29.6711V31.0492C79.6636 31.6209 79.818 32.0752 80.1266 32.4121C80.4456 32.7489 80.8623 32.9174 81.3767 32.9174Z" fill="#0F1014"/>
    <path d="M90.5534 34.5405C89.9567 34.5405 89.4217 34.4435 88.9484 34.2495C88.4854 34.0454 88.0893 33.7646 87.76 33.4074C87.4411 33.0399 87.1942 32.6009 87.0192 32.0905C86.8443 31.5699 86.7569 30.988 86.7569 30.3449C86.7569 29.712 86.8392 29.1403 87.0038 28.6299C87.1787 28.1195 87.4257 27.6856 87.7446 27.3283C88.0636 26.9608 88.4545 26.6801 88.9175 26.4862C89.3805 26.282 89.9053 26.1799 90.4917 26.1799C91.1193 26.1799 91.6646 26.2871 92.1276 26.5015C92.5906 26.7158 92.9713 27.0068 93.2697 27.3743C93.5681 27.7418 93.7893 28.1705 93.9333 28.6605C94.0876 29.1403 94.1648 29.6558 94.1648 30.2071V30.8502H88.8095V31.0492C88.8095 31.6311 88.9741 32.1007 89.3034 32.458C89.6326 32.8051 90.1213 32.9786 90.7695 32.9786C91.2634 32.9786 91.6646 32.8765 91.9733 32.6724C92.2922 32.4682 92.5752 32.2079 92.8221 31.8914L93.887 33.0705C93.5578 33.5299 93.1051 33.8922 92.5289 34.1577C91.963 34.4129 91.3045 34.5405 90.5534 34.5405ZM90.5226 27.6499C89.9978 27.6499 89.5812 27.8234 89.2725 28.1705C88.9638 28.5176 88.8095 28.9668 88.8095 29.518V29.6405H92.1122V29.5027C92.1122 28.9515 91.9733 28.5074 91.6955 28.1705C91.428 27.8234 91.037 27.6499 90.5226 27.6499Z" fill="#0F1014"/>
    <path d="M95.9029 34.3567V26.3637H97.8783V27.6958H97.9555C98.1098 27.2773 98.3567 26.92 98.6963 26.624C99.0358 26.3279 99.5091 26.1799 100.116 26.1799C100.672 26.1799 101.15 26.3126 101.551 26.578C101.953 26.8435 102.251 27.2467 102.447 27.7877H102.477C102.621 27.3386 102.904 26.9608 103.326 26.6546C103.758 26.3381 104.299 26.1799 104.947 26.1799C105.739 26.1799 106.346 26.4504 106.768 26.9915C107.2 27.5325 107.416 28.3032 107.416 29.3036V34.3567H105.441V29.5027C105.441 28.3594 105.008 27.7877 104.144 27.7877C103.949 27.7877 103.758 27.8183 103.573 27.8796C103.398 27.9306 103.239 28.0123 103.095 28.1246C102.961 28.2267 102.853 28.3594 102.771 28.5227C102.688 28.6758 102.647 28.8596 102.647 29.074V34.3567H100.672V29.5027C100.672 28.3594 100.24 27.7877 99.3753 27.7877C99.1901 27.7877 99.0049 27.8183 98.8197 27.8796C98.6448 27.9306 98.4853 28.0123 98.3413 28.1246C98.2075 28.2267 98.0944 28.3594 98.0018 28.5227C97.9195 28.6758 97.8783 28.8596 97.8783 29.074V34.3567H95.9029Z" fill="#0F1014"/>
    <path d="M114.421 26.3637H116.273L113.032 35.7808C112.929 36.0666 112.811 36.3116 112.677 36.5158C112.553 36.7301 112.404 36.9037 112.229 37.0364C112.054 37.1691 111.844 37.2661 111.597 37.3273C111.35 37.3886 111.062 37.4192 110.732 37.4192H109.544V35.8573H110.995L111.365 34.7395L108.479 26.3637H110.439L111.844 30.5899L112.368 32.6111H112.461L113.016 30.5899L114.421 26.3637Z" fill="#0F1014"/>
    <path d="M0 7.74194C0 3.46618 3.46618 0 7.74194 0H32.2581C36.5338 0 40 3.46618 40 7.74194V32.2581C40 36.5338 36.5338 40 32.2581 40H7.74194C3.46618 40 0 36.5338 0 32.2581V7.74194Z" fill="#F58400"/>
    <path d="M14.9337 8.38721H25.0556L32.9033 30.9679H26.6188L20.68 13.8798H19.3226L13.392 30.9679H7.0968L14.9337 8.38721Z" fill="white"/>
</svg>
