<svg width="170" height="48" viewBox="0 0 170 48" fill="none" xmlns="http://www.w3.org/2000/svg">
    <path d="M64.2332 6.38549V14.3566C64.2332 15.3723 64.4252 16.1341 64.8092 16.642C65.2056 17.1499 65.8683 17.4038 66.7973 17.4038C67.7264 17.4038 68.3829 17.1499 68.7669 16.642C69.1633 16.1341 69.3615 15.3723 69.3615 14.3566V6.38549H71.777V14.0407C71.777 14.9945 71.6841 15.8183 71.4982 16.5119C71.3248 17.2056 71.0399 17.7816 70.6435 18.2399C70.2472 18.6983 69.7269 19.0389 69.0828 19.2619C68.451 19.4725 67.683 19.5777 66.7788 19.5777C65.8621 19.5777 65.0879 19.4725 64.4562 19.2619C63.8368 19.0389 63.329 18.6983 62.9326 18.2399C62.5362 17.7816 62.2513 17.2056 62.0779 16.5119C61.9044 15.8183 61.8177 14.9945 61.8177 14.0407V6.38549H64.2332Z" fill="#F5F5F5"/>
    <path d="M74.5906 19.3548V9.65568H76.9689V11.2722H77.0618C77.26 10.7519 77.5697 10.3184 77.9909 9.97155C78.4244 9.61233 79.019 9.43271 79.7746 9.43271C80.778 9.43271 81.546 9.76097 82.0786 10.4175C82.6113 11.074 82.8776 12.0092 82.8776 13.2232V19.3548H80.4993V13.4647C80.4993 12.771 80.3754 12.2508 80.1276 11.9039C79.8799 11.5571 79.4711 11.3837 78.9013 11.3837C78.6536 11.3837 78.412 11.4208 78.1767 11.4952C77.9537 11.5571 77.7493 11.6562 77.5635 11.7925C77.3901 11.9163 77.2477 12.0774 77.1362 12.2756C77.0247 12.4614 76.9689 12.6843 76.9689 12.9445V19.3548H74.5906Z" fill="#F5F5F5"/>
    <path d="M88.6913 19.5777C87.7623 19.5777 86.9819 19.4229 86.3501 19.1132C85.7184 18.7912 85.161 18.3514 84.6779 17.794L86.1272 16.3819C86.4864 16.7907 86.8766 17.1127 87.2977 17.3481C87.7313 17.5834 88.2268 17.7011 88.7842 17.7011C89.354 17.7011 89.7628 17.602 90.0105 17.4038C90.2706 17.2056 90.4007 16.9331 90.4007 16.5863C90.4007 16.3014 90.3078 16.0784 90.122 15.9174C89.9486 15.7439 89.6451 15.6263 89.2116 15.5643L88.2454 15.4343C87.1925 15.298 86.3873 15.0007 85.8299 14.5424C85.2848 14.0717 85.0123 13.3904 85.0123 12.4985C85.0123 12.0278 85.099 11.6067 85.2725 11.235C85.4459 10.851 85.6936 10.529 86.0157 10.2688C86.3377 9.99633 86.7217 9.79194 87.1677 9.65568C87.626 9.50704 88.1339 9.43271 88.6913 9.43271C89.162 9.43271 89.577 9.46988 89.9362 9.5442C90.3078 9.60613 90.6423 9.70523 90.9396 9.84149C91.2368 9.96536 91.5094 10.1264 91.7571 10.3246C92.0048 10.5104 92.2464 10.721 92.4817 10.9563L91.0882 12.3499C90.8033 12.0526 90.4627 11.8048 90.0663 11.6067C89.6699 11.4085 89.2363 11.3094 88.7656 11.3094C88.2454 11.3094 87.8676 11.4023 87.6322 11.5881C87.4092 11.7739 87.2977 12.0154 87.2977 12.3127C87.2977 12.6348 87.3906 12.8825 87.5765 13.0559C87.7747 13.217 88.1029 13.3347 88.5612 13.409L89.546 13.539C91.6394 13.8363 92.6861 14.7901 92.6861 16.4005C92.6861 16.8712 92.587 17.3047 92.3888 17.7011C92.203 18.0851 91.9367 18.4196 91.5899 18.7045C91.243 18.977 90.8219 19.1937 90.3264 19.3548C89.8433 19.5034 89.2983 19.5777 88.6913 19.5777Z" fill="#F5F5F5"/>
    <path d="M97.6697 19.3548C96.8521 19.3548 96.2266 19.1442 95.793 18.723C95.3719 18.2895 95.1613 17.6763 95.1613 16.8836V11.5509H93.7306V9.65568H94.4738C94.833 9.65568 95.0746 9.57517 95.1984 9.41413C95.3347 9.24072 95.4028 8.98678 95.4028 8.65233V6.99865H97.5396V9.65568H99.5277V11.5509H97.5396V17.4596H99.3791V19.3548H97.6697Z" fill="#F5F5F5"/>
    <path d="M105.364 19.5777C104.671 19.5777 104.045 19.4601 103.488 19.2247C102.943 18.9894 102.472 18.6487 102.075 18.2028C101.691 17.7568 101.394 17.2242 101.184 16.6048C100.973 15.9731 100.868 15.267 100.868 14.4867C100.868 13.7063 100.973 13.0064 101.184 12.387C101.394 11.7677 101.691 11.2412 102.075 10.8077C102.472 10.3617 102.943 10.0211 103.488 9.78575C104.045 9.55039 104.671 9.43271 105.364 9.43271C106.058 9.43271 106.683 9.55039 107.241 9.78575C107.798 10.0211 108.269 10.3617 108.653 10.8077C109.049 11.2412 109.353 11.7677 109.563 12.387C109.774 13.0064 109.879 13.7063 109.879 14.4867C109.879 15.267 109.774 15.9731 109.563 16.6048C109.353 17.2242 109.049 17.7568 108.653 18.2028C108.269 18.6487 107.798 18.9894 107.241 19.2247C106.683 19.4601 106.058 19.5777 105.364 19.5777ZM105.364 17.6639C105.996 17.6639 106.491 17.4719 106.851 17.0879C107.21 16.7039 107.39 16.1403 107.39 15.3971V13.5948C107.39 12.8639 107.21 12.3065 106.851 11.9225C106.491 11.5385 105.996 11.3465 105.364 11.3465C104.745 11.3465 104.256 11.5385 103.896 11.9225C103.537 12.3065 103.358 12.8639 103.358 13.5948V15.3971C103.358 16.1403 103.537 16.7039 103.896 17.0879C104.256 17.4719 104.745 17.6639 105.364 17.6639Z" fill="#F5F5F5"/>
    <path d="M111.988 9.65568H114.366V11.2536H114.44C114.614 10.6962 114.942 10.2565 115.425 9.93439C115.908 9.59994 116.472 9.43271 117.116 9.43271C118.355 9.43271 119.296 9.87246 119.94 10.7519C120.597 11.619 120.925 12.8639 120.925 14.4867C120.925 16.1217 120.597 17.379 119.94 18.2585C119.296 19.138 118.355 19.5777 117.116 19.5777C116.472 19.5777 115.908 19.4105 115.425 19.0761C114.955 18.7416 114.626 18.2957 114.44 17.7383H114.366V23.0709H111.988V9.65568ZM116.354 17.6082C116.974 17.6082 117.475 17.4038 117.859 16.995C118.243 16.5863 118.435 16.035 118.435 15.3414V13.6691C118.435 12.9754 118.243 12.4242 117.859 12.0154C117.475 11.5943 116.974 11.3837 116.354 11.3837C115.784 11.3837 115.308 11.5261 114.924 11.811C114.552 12.0959 114.366 12.4737 114.366 12.9445V16.0288C114.366 16.5367 114.552 16.9269 114.924 17.1994C115.308 17.4719 115.784 17.6082 116.354 17.6082Z" fill="#F5F5F5"/>
    <path d="M123.129 9.65568H125.507V11.2536H125.582C125.755 10.6962 126.083 10.2565 126.566 9.93439C127.049 9.59994 127.613 9.43271 128.257 9.43271C129.496 9.43271 130.437 9.87246 131.081 10.7519C131.738 11.619 132.066 12.8639 132.066 14.4867C132.066 16.1217 131.738 17.379 131.081 18.2585C130.437 19.138 129.496 19.5777 128.257 19.5777C127.613 19.5777 127.049 19.4105 126.566 19.0761C126.096 18.7416 125.767 18.2957 125.582 17.7383H125.507V23.0709H123.129V9.65568ZM127.495 17.6082C128.115 17.6082 128.616 17.4038 129 16.995C129.384 16.5863 129.576 16.035 129.576 15.3414V13.6691C129.576 12.9754 129.384 12.4242 129 12.0154C128.616 11.5943 128.115 11.3837 127.495 11.3837C126.926 11.3837 126.449 11.5261 126.065 11.811C125.693 12.0959 125.507 12.4737 125.507 12.9445V16.0288C125.507 16.5367 125.693 16.9269 126.065 17.1994C126.449 17.4719 126.926 17.6082 127.495 17.6082Z" fill="#F5F5F5"/>
    <path d="M141.405 19.3548C140.885 19.3548 140.47 19.2061 140.16 18.9088C139.863 18.5992 139.677 18.1904 139.603 17.6825H139.491C139.33 18.3143 139.002 18.7912 138.506 19.1132C138.011 19.4229 137.398 19.5777 136.667 19.5777C135.676 19.5777 134.914 19.3176 134.382 18.7974C133.849 18.2771 133.583 17.5834 133.583 16.7163C133.583 15.713 133.942 14.9697 134.66 14.4867C135.379 13.9912 136.401 13.7434 137.726 13.7434H139.38V13.0374C139.38 12.4923 139.237 12.0712 138.952 11.7739C138.667 11.4766 138.209 11.3279 137.577 11.3279C137.02 11.3279 136.568 11.4518 136.221 11.6996C135.887 11.9349 135.602 12.2198 135.366 12.5543L133.954 11.2908C134.313 10.7334 134.79 10.2874 135.385 9.95297C135.979 9.60613 136.766 9.43271 137.745 9.43271C139.058 9.43271 140.055 9.73001 140.736 10.3246C141.417 10.9192 141.758 11.7739 141.758 12.8887V17.4596H142.724V19.3548H141.405ZM137.466 17.8497C137.999 17.8497 138.451 17.7321 138.822 17.4967C139.194 17.2614 139.38 16.9145 139.38 16.4562V15.1741H137.856C136.617 15.1741 135.998 15.5705 135.998 16.3633V16.6792C135.998 17.0756 136.122 17.3728 136.37 17.571C136.63 17.7568 136.995 17.8497 137.466 17.8497Z" fill="#F5F5F5"/>
    <path d="M144.649 5.6051H147.027V11.2536H147.102C147.275 10.6962 147.603 10.2565 148.087 9.93439C148.57 9.59994 149.133 9.43271 149.777 9.43271C151.016 9.43271 151.957 9.87246 152.602 10.7519C153.258 11.619 153.586 12.8639 153.586 14.4867C153.586 16.1217 153.258 17.379 152.602 18.2585C151.957 19.138 151.016 19.5777 149.777 19.5777C149.133 19.5777 148.57 19.4105 148.087 19.0761C147.616 18.7416 147.288 18.2957 147.102 17.7383H147.027V19.3548H144.649V5.6051ZM149.016 17.6082C149.635 17.6082 150.137 17.4038 150.521 16.995C150.905 16.5863 151.097 16.035 151.097 15.3414V13.6691C151.097 12.9754 150.905 12.4242 150.521 12.0154C150.137 11.5943 149.635 11.3837 149.016 11.3837C148.446 11.3837 147.969 11.5261 147.585 11.811C147.213 12.0959 147.027 12.4737 147.027 12.9445V16.0288C147.027 16.5367 147.213 16.9269 147.585 17.1994C147.969 17.4719 148.446 17.6082 149.016 17.6082Z" fill="#F5F5F5"/>
    <path d="M158.169 19.3548C157.351 19.3548 156.75 19.1504 156.366 18.7416C155.982 18.3328 155.79 17.7568 155.79 17.0136V5.6051H158.169V17.4596H159.451V19.3548H158.169Z" fill="#F5F5F5"/>
    <path d="M165.172 19.5777C164.454 19.5777 163.81 19.4601 163.24 19.2247C162.683 18.977 162.206 18.6363 161.809 18.2028C161.425 17.7568 161.128 17.2242 160.917 16.6048C160.707 15.9731 160.602 15.267 160.602 14.4867C160.602 13.7187 160.701 13.025 160.899 12.4056C161.109 11.7863 161.407 11.2598 161.791 10.8263C162.175 10.3803 162.645 10.0397 163.203 9.80433C163.76 9.55659 164.392 9.43271 165.098 9.43271C165.854 9.43271 166.51 9.56278 167.068 9.82291C167.625 10.083 168.083 10.4361 168.443 10.882C168.802 11.3279 169.068 11.8482 169.242 12.4428C169.427 13.025 169.52 13.6505 169.52 14.3194V15.0998H163.073V15.3414C163.073 16.0474 163.271 16.6172 163.667 17.0508C164.064 17.4719 164.652 17.6825 165.433 17.6825C166.027 17.6825 166.51 17.5587 166.882 17.3109C167.266 17.0632 167.606 16.7473 167.904 16.3633L169.186 17.794C168.789 18.3514 168.244 18.7912 167.551 19.1132C166.869 19.4229 166.077 19.5777 165.172 19.5777ZM165.135 11.2165C164.504 11.2165 164.002 11.427 163.63 11.8482C163.259 12.2694 163.073 12.8144 163.073 13.4833V13.6319H167.049V13.4647C167.049 12.7958 166.882 12.257 166.547 11.8482C166.225 11.427 165.755 11.2165 165.135 11.2165Z" fill="#F5F5F5"/>
    <path d="M63.8802 43.3548L60.8701 30.3855H63.3228L64.6048 36.61L65.4038 40.5863H65.4595L66.3886 36.61L67.875 30.3855H70.5878L72.0742 36.61L72.9847 40.5863H73.0404L73.858 36.61L75.1772 30.3855H77.5184L74.4154 43.3548H71.6469L69.9932 36.4985L69.1942 33.0797H69.1571L68.321 36.4985L66.6673 43.3548H63.8802Z" fill="#F5F5F5"/>
    <path d="M86.0804 43.3548C85.5602 43.3548 85.1452 43.2061 84.8355 42.9088C84.5382 42.5992 84.3524 42.1904 84.2781 41.6825H84.1666C84.0056 42.3143 83.6773 42.7912 83.1818 43.1132C82.6864 43.4229 82.0732 43.5777 81.3424 43.5777C80.3514 43.5777 79.5896 43.3176 79.0569 42.7974C78.5243 42.2771 78.258 41.5834 78.258 40.7163C78.258 39.713 78.6172 38.9697 79.3356 38.4866C80.0541 37.9912 81.076 37.7434 82.4015 37.7434H84.0551V37.0374C84.0551 36.4923 83.9127 36.0712 83.6278 35.7739C83.3429 35.4766 82.8846 35.3279 82.2528 35.3279C81.6954 35.3279 81.2433 35.4518 80.8964 35.6996C80.562 35.9349 80.2771 36.2198 80.0417 36.5543L78.6296 35.2908C78.9888 34.7334 79.4657 34.2874 80.0603 33.953C80.6549 33.6061 81.4415 33.4327 82.42 33.4327C83.7331 33.4327 84.7302 33.73 85.4115 34.3246C86.0928 34.9192 86.4335 35.7739 86.4335 36.8887V41.4596H87.3997V43.3548H86.0804ZM82.1413 41.8497C82.674 41.8497 83.1261 41.7321 83.4977 41.4967C83.8693 41.2614 84.0551 40.9145 84.0551 40.4562V39.1741H82.5315C81.2928 39.1741 80.6735 39.5705 80.6735 40.3633V40.6792C80.6735 41.0756 80.7973 41.3728 81.0451 41.571C81.3052 41.7568 81.6706 41.8497 82.1413 41.8497Z" fill="#F5F5F5"/>
    <path d="M91.7028 43.3548C90.8853 43.3548 90.2845 43.1504 89.9005 42.7416C89.5165 42.3328 89.3245 41.7568 89.3245 41.0136V29.6051H91.7028V41.4596H92.9849V43.3548H91.7028Z" fill="#F5F5F5"/>
    <path d="M97.0375 43.3548C96.2199 43.3548 95.6192 43.1504 95.2352 42.7416C94.8512 42.3328 94.6592 41.7568 94.6592 41.0136V29.6051H97.0375V41.4596H98.3196V43.3548H97.0375Z" fill="#F5F5F5"/>
    <path d="M104.041 43.5777C103.323 43.5777 102.679 43.4601 102.109 43.2247C101.552 42.977 101.075 42.6363 100.678 42.2028C100.294 41.7568 99.997 41.2242 99.7864 40.6048C99.5758 39.9731 99.4705 39.267 99.4705 38.4866C99.4705 37.7187 99.5696 37.025 99.7678 36.4056C99.9784 35.7863 100.276 35.2598 100.66 34.8263C101.044 34.3803 101.514 34.0397 102.072 33.8043C102.629 33.5566 103.261 33.4327 103.967 33.4327C104.723 33.4327 105.379 33.5628 105.937 33.8229C106.494 34.083 106.952 34.4361 107.312 34.882C107.671 35.3279 107.937 35.8482 108.111 36.4428C108.296 37.025 108.389 37.6505 108.389 38.3194V39.0998H101.942V39.3414C101.942 40.0474 102.14 40.6172 102.536 41.0508C102.933 41.4719 103.521 41.6825 104.302 41.6825C104.896 41.6825 105.379 41.5587 105.751 41.3109C106.135 41.0632 106.475 40.7473 106.773 40.3633L108.055 41.794C107.658 42.3514 107.113 42.7912 106.42 43.1132C105.738 43.4229 104.946 43.5777 104.041 43.5777ZM104.004 35.2165C103.372 35.2165 102.871 35.427 102.499 35.8482C102.128 36.2694 101.942 36.8144 101.942 37.4833V37.6319H105.918V37.4647C105.918 36.7958 105.751 36.257 105.416 35.8482C105.094 35.427 104.624 35.2165 104.004 35.2165Z" fill="#F5F5F5"/>
    <path d="M113.51 43.3548C112.693 43.3548 112.067 43.1442 111.634 42.723C111.213 42.2895 111.002 41.6763 111.002 40.8836V35.5509H109.571V33.6557H110.315C110.674 33.6557 110.915 33.5752 111.039 33.4141C111.175 33.2407 111.244 32.9868 111.244 32.6523V30.9986H113.38V33.6557H115.368V35.5509H113.38V41.4596H115.22V43.3548H113.51Z" fill="#F5F5F5"/>
    <path d="M0 9.29032C0 4.15942 4.15942 0 9.29032 0H38.7097C43.8406 0 48 4.15942 48 9.29032V38.7097C48 43.8406 43.8406 48 38.7097 48H9.29032C4.15942 48 0 43.8406 0 38.7097V9.29032Z" fill="#FFA800"/>
    <path d="M0 9.29032C0 4.15942 4.15942 0 9.29032 0H38.7097C43.8406 0 48 4.15942 48 9.29032V38.7097C48 43.8406 43.8406 48 38.7097 48H9.29032C4.15942 48 0 43.8406 0 38.7097V9.29032Z" fill="url(#paint0_linear)"/>
    <path d="M25.8858 24.0381C25.8858 25.0751 25.0418 25.9153 24.0001 25.9153C22.9584 25.9153 22.1144 25.0751 22.1144 24.0381V0H14.5715V24.0381C14.5715 29.224 18.7925 33.4286 24.0001 33.4286C29.2069 33.4286 33.4287 29.224 33.4287 24.0381V0H25.8858V24.0381Z" fill="#1F2129"/>
    <defs>
        <linearGradient id="paint0_linear" x1="24" y1="0" x2="24" y2="48" gradientUnits="userSpaceOnUse">
            <stop stop-color="#FED20F"/>
            <stop offset="1" stop-color="#FED20F" stop-opacity="0"/>
        </linearGradient>
    </defs>
</svg>
