<svg viewBox="0 0 271 40" fill="none" xmlns="http://www.w3.org/2000/svg">
    <path fill-rule="evenodd" clip-rule="evenodd" d="M21.1321 0H6C2.68629 0 0 2.68629 0 6V34C0 37.3137 2.68629 40 6 40H34C37.3137 40 40 37.3137 40 34V18.8679L21.1321 0ZM8 8V32H32V22H18V8H8Z" fill="#F58400"/>
    <path class="brand" d="M62.6793 31.6776C61.0665 31.6776 59.8781 31.2877 59.1141 30.5079C58.3714 29.7281 58 28.6006 58 27.1254V8.28451H62.7112V28.0422H64.8121V31.6776H62.6793Z" fill="white"/>
    <path class="brand" d="M69.9923 13.3109C69.0373 13.3109 68.337 13.1001 67.8914 12.6786C67.467 12.236 67.2547 11.6776 67.2547 11.0032V10.3077C67.2547 9.6333 67.467 9.08535 67.8914 8.66386C68.337 8.22129 69.0373 8 69.9923 8C70.9473 8 71.637 8.22129 72.0614 8.66386C72.5071 9.08535 72.7299 9.6333 72.7299 10.3077V11.0032C72.7299 11.6776 72.5071 12.236 72.0614 12.6786C71.637 13.1001 70.9473 13.3109 69.9923 13.3109ZM67.6367 15.0811H72.3479V31.6776H67.6367V15.0811Z" fill="white"/>
    <path class="brand" d="M82.6021 31.6776C80.9681 31.6776 79.7266 31.2666 78.8778 30.4447C78.0501 29.6228 77.6363 28.4215 77.6363 26.8409V18.7165H75.2807V15.0811H76.4585C77.0951 15.0811 77.5302 14.9336 77.7636 14.6386C77.9971 14.3224 78.1138 13.8799 78.1138 13.3109V10.5922H82.3475V15.0811H85.658V18.7165H82.3475V28.0422H85.4034V31.6776H82.6021Z" fill="white"/>
    <path class="brand" d="M88.9308 31.6776V15.0811H93.642V18.6849H93.8011C93.886 18.2213 94.0346 17.7787 94.2468 17.3572C94.459 16.9146 94.7349 16.5248 95.0744 16.1876C95.4352 15.8504 95.8596 15.5869 96.3477 15.3973C96.8358 15.1865 97.4088 15.0811 98.0666 15.0811H98.8943V19.4436H97.7165C96.3371 19.4436 95.3079 19.6228 94.6288 19.981C93.9709 20.3393 93.642 21.0032 93.642 21.9726V31.6776H88.9308Z" fill="white"/>
    <path class="brand" d="M108.616 32.0569C107.343 32.0569 106.208 31.8567 105.21 31.4563C104.213 31.0348 103.364 30.4552 102.664 29.7176C101.985 28.9589 101.465 28.0422 101.104 26.9673C100.764 25.8925 100.595 24.6913 100.595 23.3635C100.595 22.0569 100.764 20.8767 101.104 19.823C101.443 18.7482 101.942 17.8314 102.6 17.0727C103.279 16.314 104.107 15.7345 105.083 15.334C106.059 14.9125 107.173 14.7018 108.425 14.7018C109.805 14.7018 110.983 14.9336 111.959 15.3973C112.956 15.8609 113.763 16.4826 114.378 17.2624C115.015 18.0421 115.471 18.9484 115.747 19.981C116.044 20.9926 116.192 22.0569 116.192 23.1739V24.5648H105.465V24.8177C105.465 25.9136 105.762 26.7882 106.356 27.4415C106.95 28.0738 107.884 28.3899 109.157 28.3899C110.134 28.3899 110.929 28.2002 111.545 27.8209C112.16 27.4204 112.733 26.9463 113.264 26.3983L115.619 29.3066C114.877 30.1707 113.9 30.8451 112.691 31.3298C111.502 31.8145 110.144 32.0569 108.616 32.0569ZM108.521 18.1475C107.566 18.1475 106.812 18.4636 106.261 19.0959C105.73 19.7071 105.465 20.529 105.465 21.5616V21.8145H111.322V21.53C111.322 20.5184 111.089 19.7071 110.622 19.0959C110.176 18.4636 109.476 18.1475 108.521 18.1475Z" fill="white"/>
    <path class="brand" d="M117.399 31.6776L122.906 23.2371L117.462 15.0811H122.81L125.93 20.2972H126.057L129.081 15.0811H134.047L128.508 23.3952L134.079 31.6776H128.731L125.516 26.2719H125.389L122.301 31.6776H117.399Z" fill="white"/>
    <path d="M156.804 31.6782C155.849 31.6782 155.159 31.4253 154.735 30.9195C154.331 30.4137 154.077 29.7815 153.971 29.0228H153.812C153.451 30.0344 152.857 30.7931 152.029 31.2989C151.201 31.8047 150.214 32.0575 149.069 32.0575C147.328 32.0575 145.97 31.615 144.994 30.7298C144.039 29.8447 143.562 28.6434 143.562 27.126C143.562 25.5876 144.124 24.4074 145.249 23.5855C146.395 22.7636 148.167 22.3526 150.565 22.3526H153.812V20.7404C153.812 19.5813 153.493 18.6961 152.857 18.0849C152.22 17.4738 151.244 17.1682 149.928 17.1682C148.931 17.1682 148.092 17.3895 147.413 17.832C146.755 18.2746 146.204 18.8647 145.758 19.6023L144.23 18.1798C144.676 17.2946 145.387 16.5465 146.363 15.9353C147.339 15.3031 148.57 14.9869 150.055 14.9869C152.05 14.9869 153.599 15.4717 154.703 16.4411C155.806 17.4106 156.358 18.7593 156.358 20.4875V29.4653H158.236V31.6782H156.804ZM149.482 29.9079C150.119 29.9079 150.703 29.8342 151.233 29.6866C151.764 29.5391 152.22 29.3284 152.602 29.0544C152.984 28.7804 153.281 28.4643 153.493 28.106C153.705 27.7477 153.812 27.3579 153.812 26.9364V24.2493H150.437C148.973 24.2493 147.901 24.4601 147.222 24.8816C146.564 25.3031 146.235 25.9142 146.235 26.7151V27.3789C146.235 28.1798 146.522 28.8015 147.095 29.2441C147.689 29.6866 148.485 29.9079 149.482 29.9079Z" fill="#808085"/>
    <path d="M167.983 32.0575C166.837 32.0575 165.807 31.8573 164.895 31.4569C163.982 31.0565 163.208 30.4875 162.571 29.7499C161.956 29.0122 161.478 28.1166 161.139 27.0628C160.82 26.0091 160.661 24.8289 160.661 23.5222C160.661 22.2156 160.82 21.0354 161.139 19.9817C161.478 18.9279 161.956 18.0323 162.571 17.2946C163.208 16.557 163.982 15.988 164.895 15.5876C165.807 15.1872 166.837 14.9869 167.983 14.9869C169.617 14.9869 170.922 15.3452 171.898 16.0618C172.895 16.7572 173.638 17.674 174.126 18.812L171.993 19.8868C171.696 19.0438 171.208 18.3905 170.529 17.9269C169.85 17.4632 169.001 17.2314 167.983 17.2314C167.219 17.2314 166.55 17.3579 165.977 17.6108C165.404 17.8426 164.927 18.1798 164.545 18.6224C164.163 19.0438 163.876 19.5602 163.685 20.1714C163.494 20.7614 163.399 21.4148 163.399 22.1313V24.9132C163.399 26.3463 163.781 27.5265 164.545 28.4538C165.33 29.36 166.476 29.8131 167.983 29.8131C170.041 29.8131 171.527 28.8647 172.439 26.968L174.285 28.2009C173.755 29.381 172.959 30.3189 171.898 31.0143C170.858 31.7098 169.553 32.0575 167.983 32.0575Z" fill="#808085"/>
    <path d="M189.817 31.6782C188.862 31.6782 188.173 31.4253 187.748 30.9195C187.345 30.4137 187.09 29.7815 186.984 29.0228H186.825C186.464 30.0344 185.87 30.7931 185.042 31.2989C184.215 31.8047 183.228 32.0575 182.082 32.0575C180.342 32.0575 178.984 31.615 178.008 30.7298C177.053 29.8447 176.575 28.6434 176.575 27.126C176.575 25.5876 177.137 24.4074 178.262 23.5855C179.408 22.7636 181.18 22.3526 183.578 22.3526H186.825V20.7404C186.825 19.5813 186.507 18.6961 185.87 18.0849C185.233 17.4738 184.257 17.1682 182.942 17.1682C181.944 17.1682 181.106 17.3895 180.427 17.832C179.769 18.2746 179.217 18.8647 178.772 19.6023L177.244 18.1798C177.689 17.2946 178.4 16.5465 179.376 15.9353C180.353 15.3031 181.583 14.9869 183.069 14.9869C185.064 14.9869 186.613 15.4717 187.716 16.4411C188.82 17.4106 189.372 18.7593 189.372 20.4875V29.4653H191.25V31.6782H189.817ZM182.496 29.9079C183.133 29.9079 183.716 29.8342 184.247 29.6866C184.777 29.5391 185.233 29.3284 185.615 29.0544C185.997 28.7804 186.295 28.4643 186.507 28.106C186.719 27.7477 186.825 27.3579 186.825 26.9364V24.2493H183.451C181.987 24.2493 180.915 24.4601 180.236 24.8816C179.578 25.3031 179.249 25.9142 179.249 26.7151V27.3789C179.249 28.1798 179.535 28.8015 180.108 29.2441C180.703 29.6866 181.498 29.9079 182.496 29.9079Z" fill="#808085"/>
    <path d="M205.389 29.0228H205.262C204.264 31.046 202.662 32.0575 200.455 32.0575C199.436 32.0575 198.513 31.8573 197.686 31.4569C196.858 31.0565 196.147 30.4875 195.553 29.7499C194.98 29.0122 194.534 28.1166 194.216 27.0628C193.919 26.0091 193.77 24.8289 193.77 23.5222C193.77 22.2156 193.919 21.0354 194.216 19.9817C194.534 18.9279 194.98 18.0323 195.553 17.2946C196.147 16.557 196.858 15.988 197.686 15.5876C198.513 15.1872 199.436 14.9869 200.455 14.9869C201.601 14.9869 202.577 15.2398 203.384 15.7456C204.211 16.2304 204.837 16.9891 205.262 18.0217H205.389V8.28516H207.936V31.6782H205.389V29.0228ZM201.155 29.7815C201.728 29.7815 202.269 29.7077 202.779 29.5602C203.309 29.4127 203.766 29.2019 204.148 28.9279C204.53 28.6329 204.827 28.2852 205.039 27.8847C205.272 27.4632 205.389 26.9891 205.389 26.4622V20.3926C205.389 19.9501 205.272 19.5391 205.039 19.1598C204.827 18.7593 204.53 18.4221 204.148 18.1482C203.766 17.8742 203.309 17.6634 202.779 17.5159C202.269 17.3473 201.728 17.263 201.155 17.263C199.712 17.263 198.577 17.7161 197.749 18.6224C196.922 19.5075 196.508 20.6771 196.508 22.1313V24.9132C196.508 26.3673 196.922 27.5475 197.749 28.4538C198.577 29.3389 199.712 29.7815 201.155 29.7815Z" fill="#808085"/>
    <path d="M219.525 32.0575C218.4 32.0575 217.382 31.8573 216.469 31.4569C215.578 31.0565 214.803 30.4875 214.145 29.7499C213.509 28.9912 213.01 28.0955 212.649 27.0628C212.31 26.0091 212.14 24.8289 212.14 23.5222C212.14 22.2367 212.31 21.067 212.649 20.0133C213.01 18.9595 213.509 18.0639 214.145 17.3263C214.803 16.5676 215.578 15.988 216.469 15.5876C217.382 15.1872 218.4 14.9869 219.525 14.9869C220.629 14.9869 221.615 15.1872 222.485 15.5876C223.356 15.988 224.098 16.5465 224.714 17.263C225.329 17.9585 225.796 18.791 226.114 19.7604C226.454 20.7298 226.624 21.7941 226.624 22.9532V24.1545H214.814V24.9132C214.814 25.6087 214.92 26.262 215.132 26.8731C215.366 27.4632 215.684 27.9796 216.087 28.4221C216.512 28.8647 217.021 29.2125 217.615 29.4653C218.231 29.7182 218.92 29.8447 219.684 29.8447C220.724 29.8447 221.626 29.6023 222.39 29.1176C223.175 28.6329 223.78 27.9374 224.204 27.0312L226.019 28.3273C225.488 29.4443 224.661 30.3505 223.536 31.046C222.411 31.7204 221.074 32.0575 219.525 32.0575ZM219.525 17.105C218.825 17.105 218.188 17.2314 217.615 17.4843C217.042 17.7161 216.543 18.0533 216.119 18.4959C215.716 18.9385 215.397 19.4653 215.164 20.0765C214.931 20.6666 214.814 21.3199 214.814 22.0365V22.2578H223.886V21.91C223.886 20.4559 223.483 19.2967 222.676 18.4327C221.891 17.5475 220.841 17.105 219.525 17.105Z" fill="#808085"/>
    <path d="M230.82 31.6782V15.3663H233.367V18.0217H233.494C233.685 17.6002 233.897 17.2103 234.131 16.8521C234.385 16.4727 234.682 16.1461 235.022 15.8721C235.383 15.5981 235.796 15.3874 236.263 15.2398C236.73 15.0712 237.282 14.9869 237.919 14.9869C239.001 14.9869 239.998 15.2504 240.911 15.7773C241.823 16.283 242.502 17.126 242.948 18.3062H243.012C243.309 17.4211 243.861 16.6519 244.667 15.9985C245.495 15.3241 246.609 14.9869 248.009 14.9869C249.686 14.9869 250.991 15.5349 251.925 16.6308C252.88 17.7056 253.357 19.2335 253.357 21.2146V31.6782H250.811V21.6571C250.811 20.203 250.524 19.1071 249.951 18.3695C249.378 17.6318 248.466 17.263 247.214 17.263C246.704 17.263 246.216 17.3263 245.749 17.4527C245.304 17.5791 244.901 17.7688 244.54 18.0217C244.179 18.2746 243.892 18.6013 243.68 19.0017C243.468 19.381 243.362 19.8342 243.362 20.361V31.6782H240.815V21.6571C240.815 20.203 240.529 19.1071 239.956 18.3695C239.383 17.6318 238.492 17.263 237.282 17.263C236.773 17.263 236.285 17.3263 235.818 17.4527C235.351 17.5791 234.937 17.7688 234.576 18.0217C234.215 18.2746 233.918 18.6013 233.685 19.0017C233.473 19.381 233.367 19.8342 233.367 20.361V31.6782H230.82Z" fill="#808085"/>
    <path d="M268.485 15.3663H271L263.647 35.4717C263.456 35.9564 263.265 36.3568 263.074 36.6729C262.883 37.0101 262.649 37.2736 262.373 37.4632C262.097 37.6529 261.747 37.7899 261.323 37.8742C260.92 37.9585 260.421 38.0006 259.827 38.0006H258.522V35.7878H261.1L262.341 32.3104L256.198 15.3663H258.744L262.692 26.4622L263.456 29.1176H263.615L264.506 26.4622L268.485 15.3663Z" fill="#808085"/>
</svg>
