<svg width="124" height="36" viewBox="0 0 124 36" fill="none" xmlns="http://www.w3.org/2000/svg">
    <path d="M5.86047 0H0V25.1163C0 30.6648 4.49798 35.1628 10.0465 35.1628H14.2326V28.4651H5.86047V0Z" fill="#F58400"/>
    <path d="M39.3488 0H37.2558L28.8837 10.0465V12.1395H33.4884V25.1163C33.4884 30.6648 37.9863 35.1628 43.5349 35.1628H47.7209V28.4651H39.3488V12.1395H47.3023V5.86047H42.6977L39.3488 8.37209V0Z" fill="#F58400"/>
    <path d="M19.2558 12.1395H25.1163V35.1628H19.2558V12.1395Z" fill="#F58400"/>
    <path d="M52.7442 5.86047H54.8372L58.186 8.37209L61.5349 5.86047H67.8139V12.1395H58.6046V35.1628H52.7442V5.86047Z" fill="#F58400"/>
    <path d="M22.186 0L26.33 4.14397L22.186 8.28795L18.0421 4.14397L22.186 0Z" fill="#F58400"/>
    <path d="M103.814 5.86047H97.1163L107.163 20.5116L97.1163 35.1628H103.814L110.512 25.3953L117.209 35.1628H123.907L111.851 17.5814H115.87L123.907 5.86047H117.209L110.512 15.6279L103.814 5.86047Z" fill="#F58400"/>
    <path d="M82.8837 36C88.9844 36 94.1886 31.8229 96.213 25.9535H89.9235C88.3949 28.7753 85.7302 30.5581 82.8837 30.5581C78.4801 30.5581 74.5116 26.2914 74.5116 20.5116C74.5116 14.7319 78.4801 10.4651 82.8837 10.4651C86.5026 10.4651 89.8276 13.3467 90.8977 17.5814H76.186L79.5349 22.6047H96.9874C97.0724 21.9202 97.1163 21.2215 97.1163 20.5116C97.1163 11.9576 90.7441 5.02326 82.8837 5.02326C75.0233 5.02326 68.6512 11.9576 68.6512 20.5116C68.6512 29.0656 75.0233 36 82.8837 36Z" fill="#F58400"/>
</svg>
