<svg width="17" height="11" viewBox="0 0 17 11" fill="none" xmlns="http://www.w3.org/2000/svg">
    <path d="M16.779 6.03082C16.9196 5.89017 16.9986 5.6994 16.9986 5.50049C16.9986 5.30158 16.9196 5.11081 16.779 4.97016L12.1828 0.373967C11.8899 0.0810735 11.415 0.0810736 11.1221 0.373967C10.8292 0.66686 10.8292 1.14173 11.1221 1.43463L14.4374 4.74995L1.74682 4.74996C1.33261 4.74997 0.996824 5.08575 0.996826 5.49997C0.996828 5.91418 1.33261 6.24997 1.74683 6.24996L14.4385 6.24995L11.1221 9.56636C10.8292 9.85925 10.8292 10.3341 11.1221 10.627C11.415 10.9199 11.8899 10.9199 12.1828 10.627L16.779 6.03082Z" fill="#F58400"/>
</svg>
