<svg width="18" height="18" viewBox="0 0 18 18" fill="none" xmlns="http://www.w3.org/2000/svg">
    <path fill-rule="evenodd" clip-rule="evenodd" d="M0 2C0 0.895431 0.895431 0 2 0H10C11.1046 0 12 0.895431 12 2V10C12 11.1046 11.1046 12 10 12H2C0.895431 12 0 11.1046 0 10V2ZM2 2H10V10H2L2 2Z" fill="#808085"/>
    <path d="M15 6C14.4477 6 14 6.44772 14 7C14 7.55228 14.4477 8 15 8H16V16H8V15C8 14.4477 7.55228 14 7 14C6.44772 14 6 14.4477 6 15V16C6 17.1046 6.89543 18 8 18H16C17.1046 18 18 17.1046 18 16V8C18 6.89543 17.1046 6 16 6H15Z" fill="#808085"/>
</svg>
