<svg width="32" height="32" viewBox="0 0 32 32" fill="none" xmlns="http://www.w3.org/2000/svg">
    <path fill-rule="evenodd" clip-rule="evenodd" d="M0 4C0 1.79086 1.79086 0 4 0H18C20.2091 0 22 1.79086 22 4V18C22 20.2091 20.2091 22 18 22H4C1.79086 22 0 20.2091 0 18V4ZM4 3H18C18.5523 3 19 3.44772 19 4V18C19 18.5523 18.5523 19 18 19H4C3.44772 19 3 18.5523 3 18V4C3 3.44772 3.44772 3 4 3Z" fill="#F58400"/>
    <path d="M26.5 10C25.6716 10 25 10.6716 25 11.5C25 12.3284 25.6716 13 26.5 13H27.5C28.3284 13 29 13.6716 29 14.5V27.5C29 28.3284 28.3284 29 27.5 29H14.5C13.6716 29 13 28.3284 13 27.5V25.5C13 24.6716 12.3284 24 11.5 24C10.6716 24 10 24.6716 10 25.5V27.5C10 29.9853 12.0147 32 14.5 32H27.5C29.9853 32 32 29.9853 32 27.5V14.5C32 12.0147 29.9853 10 27.5 10H26.5Z" fill="#F58400"/>
</svg>
