<svg width="18" height="18" viewBox="0 0 18 18" fill="none" xmlns="http://www.w3.org/2000/svg">
    <path fill-rule="evenodd" clip-rule="evenodd" d="M18 9C18 13.9706 13.9706 18 9 18C4.02944 18 0 13.9706 0 9C0 4.02944 4.02944 0 9 0C13.9706 0 18 4.02944 18 9ZM4.72671 8C4.88439 6.05328 5.50328 4.1369 6.58338 2.42835C4.20928 3.30167 2.43925 5.42475 2.07089 8H4.72671ZM4.7267 10H2.07089C2.43924 12.5752 4.20922 14.6983 6.58326 15.5716C5.5032 13.8631 4.88435 11.9467 4.7267 10ZM6.73458 10H11.2654C11.0748 11.9688 10.3196 13.8933 9 15.5108C7.68037 13.8933 6.92522 11.9688 6.73458 10ZM11.2654 8H6.73459C6.92526 6.03125 7.6804 4.10685 9 2.48938C10.3196 4.10685 11.0747 6.03125 11.2654 8ZM13.2733 10C13.1156 11.9467 12.4968 13.8631 11.4167 15.5716C13.7908 14.6983 15.5608 12.5752 15.9291 10H13.2733ZM15.9291 8H13.2733C13.1156 6.05328 12.4967 4.1369 11.4166 2.42835C13.7907 3.30166 15.5608 5.42475 15.9291 8Z" fill="#808085"/>
</svg>
