<svg width="18" height="18" viewBox="0 0 18 18" fill="none" xmlns="http://www.w3.org/2000/svg">
    <path d="M15.0001 5.99976C16.6569 5.99976 18.0001 4.65661 18.0001 2.99976C18.0001 1.3429 16.6569 -0.000244141 15.0001 -0.000244141C13.3432 -0.000244141 12.0001 1.3429 12.0001 2.99976C12.0001 3.12523 12.0078 3.2489 12.0227 3.37032L5.08259 6.84039C4.54303 6.3199 3.8089 5.99976 3 5.99976C1.34315 5.99976 0 7.3429 0 8.99976C0 10.6566 1.34315 11.9998 3 11.9998C3.80892 11.9998 4.54306 11.6796 5.08262 11.1591L12.0227 14.6291C12.0078 14.7506 12.0001 14.8743 12.0001 14.9998C12.0001 16.6566 13.3432 17.9998 15.0001 17.9998C16.6569 17.9998 18.0001 16.6566 18.0001 14.9998C18.0001 13.3429 16.6569 11.9998 15.0001 11.9998C14.1911 11.9998 13.457 12.3199 12.9174 12.8404L5.97733 9.37038C5.99229 9.24893 6 9.12524 6 8.99976C6 8.87425 5.99229 8.75055 5.97733 8.62909L12.9174 5.15905C13.457 5.67958 14.1911 5.99976 15.0001 5.99976Z" fill="#F58400"/>
</svg>
