<svg width="32" height="32" viewBox="0 0 32 32" fill="none" xmlns="http://www.w3.org/2000/svg">
    <path d="M16 5.51262e-08C12.8355 5.51262e-08 9.74207 0.938383 7.11088 2.69649C4.4797 4.45459 2.42894 6.95344 1.21793 9.87706C0.00693254 12.8007 -0.309921 16.0177 0.307443 19.1214C0.924806 22.2251 2.44866 25.0761 4.6863 27.3137C6.92394 29.5513 9.77486 31.0752 12.8786 31.6926C15.9823 32.3099 19.1993 31.9931 22.1229 30.7821C25.0466 29.5711 27.5454 27.5203 29.3035 24.8891C31.0616 22.2579 32 19.1645 32 16C32.0002 13.8988 31.5864 11.8181 30.7824 9.87686C29.9784 7.93557 28.7999 6.17167 27.3141 4.6859C25.8283 3.20013 24.0644 2.02159 22.1231 1.21757C20.1819 0.413559 18.1012 -0.000174366 16 5.51262e-08ZM21.0872 24.2439C21.0273 24.3933 20.9362 24.5281 20.82 24.6393C20.7037 24.7505 20.565 24.8356 20.4132 24.8889C20.2614 24.9422 20.1 24.9623 19.9397 24.9481C19.7794 24.9339 19.6241 24.8855 19.484 24.8063L15.1405 21.4313L12.3528 24.0032C12.2882 24.051 12.2125 24.0817 12.1328 24.0926C12.0531 24.1035 11.972 24.0942 11.8968 24.0655L12.4312 19.284L12.4483 19.2975L12.4593 19.2031C12.4593 19.2031 20.2753 12.0871 20.5937 11.7839C20.916 11.4815 20.8097 11.4159 20.8097 11.4159C20.828 11.0471 20.2312 11.4159 20.2312 11.4159L9.8752 18.0784L5.56242 16.6096C5.56242 16.6096 4.90002 16.372 4.83762 15.8496C4.77202 15.3312 5.58401 15.0496 5.58401 15.0496L22.7312 8.23758C22.7312 8.23758 24.1408 7.60955 24.1408 8.6496L21.0872 24.2439Z" fill="#F58400"/>
</svg>
