<svg width="18" height="18" viewBox="0 0 18 18" fill="none" xmlns="http://www.w3.org/2000/svg">
    <path d="M9 3.10085e-08C7.21997 3.10085e-08 5.47991 0.527841 3.99987 1.51677C2.51983 2.50571 1.36628 3.91131 0.685088 5.55585C0.00389956 7.20038 -0.17433 9.00998 0.172936 10.7558C0.520203 12.5016 1.37737 14.1053 2.63604 15.364C3.89471 16.6226 5.49836 17.4798 7.24419 17.8271C8.99002 18.1743 10.7996 17.9961 12.4442 17.3149C14.0887 16.6337 15.4943 15.4802 16.4832 14.0001C17.4722 12.5201 18 10.78 18 9C18.0001 7.81807 17.7674 6.64771 17.3151 5.55573C16.8629 4.46376 16.1999 3.47157 15.3642 2.63582C14.5284 1.80007 13.5362 1.13714 12.4443 0.684884C11.3523 0.232627 10.1819 -9.80809e-05 9 3.10085e-08ZM11.8616 13.6372C11.8279 13.7212 11.7766 13.797 11.7112 13.8596C11.6458 13.9222 11.5678 13.97 11.4824 14C11.397 14.03 11.3062 14.0413 11.2161 14.0333C11.1259 14.0253 11.0385 13.9981 10.9598 13.9536L8.51656 12.0551L6.94847 13.5018C6.91209 13.5287 6.86952 13.546 6.8247 13.5521C6.77988 13.5582 6.73423 13.553 6.69197 13.5368L6.99257 10.8472L7.00219 10.8549L7.00834 10.8018C7.00834 10.8018 11.4048 6.799 11.5839 6.62846C11.7653 6.45836 11.7054 6.42146 11.7054 6.42146C11.7158 6.21399 11.3801 6.42146 11.3801 6.42146L5.5548 10.1691L3.12886 9.3429C3.12886 9.3429 2.75626 9.20925 2.72116 8.9154C2.68426 8.6238 3.141 8.4654 3.141 8.4654L12.7863 4.63364C12.7863 4.63364 13.5792 4.28037 13.5792 4.8654L11.8616 13.6372Z" fill="#808085"/>
</svg>
