<svg width="32" height="32" viewBox="0 0 32 32" fill="none" xmlns="http://www.w3.org/2000/svg">
    <path fill-rule="evenodd" clip-rule="evenodd" d="M16 32C24.8366 32 32 24.8366 32 16C32 7.16344 24.8366 0 16 0C7.16344 0 0 7.16344 0 16C0 24.8366 7.16344 32 16 32ZM26.1259 9.18482C25.8275 10.1278 25.1916 10.9193 24.3629 11.4185C25.1732 11.3215 25.9469 11.1042 26.6666 10.783C26.1305 11.593 25.4487 12.3049 24.6647 12.8746C24.6728 13.0467 24.6751 13.2212 24.6751 13.3969C24.6751 18.7344 20.6416 24.889 13.2611 24.889C10.9953 24.889 8.88669 24.2199 7.111 23.0748C7.42436 23.1129 7.7446 23.1302 8.06829 23.1302C9.94729 23.1302 11.6771 22.4854 13.051 21.4015C11.2948 21.3703 9.81299 20.2009 9.30336 18.5969C9.54669 18.6443 9.79922 18.6686 10.0575 18.6686C10.4248 18.6686 10.7783 18.6212 11.1158 18.5264C9.2781 18.1567 7.89612 16.5238 7.89612 14.5663V14.5166C8.43789 14.8171 9.05657 15.0008 9.71428 15.0216C8.63761 14.2959 7.9294 13.0594 7.9294 11.6589C7.9294 10.9193 8.12683 10.226 8.47233 9.62741C10.4523 12.0726 13.408 13.6788 16.7413 13.8475C16.6724 13.5529 16.6391 13.2443 16.6391 12.9277C16.6391 10.6975 18.4343 8.889 20.6496 8.889C21.8044 8.889 22.8477 9.37896 23.5778 10.1647C24.4926 9.98332 25.35 9.64821 26.1259 9.18482Z" fill="#F58400"/>
</svg>
