<svg width="18" height="18" viewBox="0 0 18 18" fill="none" xmlns="http://www.w3.org/2000/svg">
    <path fill-rule="evenodd" clip-rule="evenodd" d="M9 18C13.9706 18 18 13.9706 18 9C18 4.02944 13.9706 0 9 0C4.02944 0 0 4.02944 0 9C0 13.9706 4.02944 18 9 18ZM14.6958 5.16646C14.528 5.69687 14.1703 6.14212 13.7041 6.42293C14.1599 6.36833 14.5951 6.24613 14.9999 6.06542C14.6984 6.52108 14.3149 6.92148 13.8739 7.24194C13.8784 7.33879 13.8797 7.43694 13.8797 7.53574C13.8797 10.5381 11.6109 14.0001 7.45935 14.0001C6.18483 14.0001 4.99876 13.6237 3.99994 12.9795C4.1762 13.001 4.35634 13.0107 4.53841 13.0107C5.59535 13.0107 6.56835 12.648 7.3412 12.0383C6.35335 12.0208 5.51981 11.363 5.23314 10.4608C5.37002 10.4874 5.51206 10.5011 5.65733 10.5011C5.86394 10.5011 6.0628 10.4744 6.25262 10.4211C5.21893 10.2131 4.44157 9.29466 4.44157 8.19355V8.1656C4.74631 8.3346 5.09432 8.43795 5.46428 8.44965C4.85866 8.04144 4.46029 7.34594 4.46029 6.55813C4.46029 6.14212 4.57134 5.75212 4.76568 5.41542C5.87944 6.79083 7.54199 7.69434 9.41697 7.78924C9.37823 7.62349 9.35951 7.44994 9.35951 7.27184C9.35951 6.01732 10.3693 5.00006 11.6154 5.00006C12.2649 5.00006 12.8518 5.27566 13.2625 5.71767C13.7771 5.61562 14.2594 5.42712 14.6958 5.16646Z" fill="#808085"/>
</svg>
